<?xml version="1.0" ?><svg fill="none" height="512" viewBox="0 0 512 512" width="512" xmlns="http://www.w3.org/2000/svg"><path d="M403.972 314.987C389.599 314.977 375.444 318.492 362.745 325.223C350.046 331.954 339.191 341.697 331.132 353.597L189.882 289.227C194.378 277.76 196.424 265.478 195.888 253.173C195.352 240.867 192.247 228.81 186.772 217.777L290.142 156.887C301.653 174.634 319.17 187.64 339.488 193.526C359.806 199.411 381.563 197.781 400.777 188.934C419.991 180.087 435.375 164.615 444.113 145.351C452.851 126.087 454.357 104.321 448.357 84.037C442.356 63.7532 429.25 46.3094 411.439 34.8996C393.627 23.4899 372.301 18.8777 351.367 21.9077C330.432 24.9376 311.289 35.4069 297.443 51.3985C283.597 67.3902 275.975 87.8341 275.972 108.987C275.975 112.167 276.145 115.345 276.482 118.507L160.842 186.627C147.516 176.62 131.623 170.603 115.011 169.275C98.3992 167.948 81.7519 171.364 67.0058 179.127C52.2597 186.89 40.0211 198.681 31.7137 213.128C23.4063 227.574 19.3718 244.082 20.0794 260.732C20.787 277.382 26.2077 293.488 35.7108 307.178C45.214 320.867 58.4089 331.577 73.7605 338.061C89.1121 344.545 105.989 346.537 122.428 343.805C138.868 341.072 154.193 333.728 166.622 322.627L316.782 390.987C316.242 394.964 315.972 398.973 315.972 402.987C315.972 420.392 321.133 437.405 330.803 451.877C340.472 466.349 354.216 477.628 370.296 484.288C386.376 490.949 404.069 492.691 421.14 489.296C438.21 485.9 453.89 477.519 466.197 465.212C478.504 452.905 486.885 437.225 490.281 420.155C493.676 403.084 491.934 385.391 485.273 369.311C478.613 353.231 467.334 339.487 452.862 329.818C438.391 320.148 421.377 314.987 403.972 314.987Z" fill="black"/></svg>